<svg id="Group_2159" data-name="Group 2159" xmlns="http://www.w3.org/2000/svg" width="24" height="24" viewBox="0 0 24 24">
  <path id="Path_17612" data-name="Path 17612" d="M-505.232,1008.074a9.635,9.635,0,0,0-9.643,9.692,9.637,9.637,0,0,0,9.686,9.649,9.636,9.636,0,0,0,9.643-9.692A9.636,9.636,0,0,0-505.232,1008.074Zm.041,16.716a7.041,7.041,0,0,1-7.061-7,7.063,7.063,0,0,1,7-7.071,7.054,7.054,0,0,1,7.083,7.032A7.043,7.043,0,0,1-505.191,1024.789Z" transform="translate(514.875 -1008.074)" fill="#008346"/>
  <path id="Path_17613" data-name="Path 17613" d="M-561.124,1179.839a1.579,1.579,0,0,0,1.492-.934,1.475,1.475,0,0,0-.317-1.715c-.626-.619-1.288-1.2-1.95-1.783a25.508,25.508,0,0,1-2.83-2.838c-.315-.378-.511-.355-.845.009-.39.423-.8.832-1.2,1.237-.27.268-.309.5-.037.718a41.118,41.118,0,0,1,4.5,4.663A1.717,1.717,0,0,0-561.124,1179.839Z" transform="translate(583.489 -1155.839)" fill="#008346"/>
</svg>
