<svg xmlns="http://www.w3.org/2000/svg" width="19" height="25" viewBox="0 0 19 25">
  <g id="Group_1434" data-name="Group 1434" transform="translate(-2677 990)">
    <path id="Subtraction_2" data-name="Subtraction 2" d="M12.183,25H1.888A1.849,1.849,0,0,1,0,23.2V1.8A1.849,1.849,0,0,1,1.888,0h10.3a1.851,1.851,0,0,1,1.889,1.8V12.738a1.8,1.8,0,0,0-.8-1.571V8.984a.439.439,0,0,0,.157.034c.3,0,.456-.361.456-.563,0-.28-.334-.448-.614-.54V2.93H.8V22.07H13.272V14.4a1.89,1.89,0,0,0,.8-1.649V23.2A1.85,1.85,0,0,1,12.183,25ZM6.377,22.64a.723.723,0,1,0,0,1.444H7.7a.723.723,0,1,0,0-1.444Zm-.6-21.574a.157.157,0,1,0,0,.314H8.3a.157.157,0,1,0,0-.314Z" transform="translate(2677 -990)" fill="#008346"/>
    <path id="Subtraction_3" data-name="Subtraction 3" d="M2.213,13.988v0l.8-2.211H1.2a1.2,1.2,0,0,1-1.2-1.2V1.2A1.2,1.2,0,0,1,1.2,0H13.169a1.2,1.2,0,0,1,1.2,1.2v9.381a1.2,1.2,0,0,1-1.2,1.2H6.992L2.215,13.987ZM5.455,7.623c-.241,0-.454.315-.454.563,0,.462.8,1.146,2.056,1.166v.307a.259.259,0,0,0,.286.227c.153,0,.3-.11.3-.227V9.322a1.917,1.917,0,0,0,1.8-2.036c0-1.324-.888-1.761-1.8-2.1V3.185a2.139,2.139,0,0,1,.877.257.752.752,0,0,0,.308.108c.29,0,.436-.361.436-.563,0-.487-.969-.692-1.621-.711V2.009c0-.117-.144-.228-.3-.228a.262.262,0,0,0-.286.228V2.3A1.862,1.862,0,0,0,5.178,4.134c0,1.27,1,1.624,1.878,1.937V8.393a1.966,1.966,0,0,1-1.219-.549C5.692,7.721,5.577,7.623,5.455,7.623Zm2.125.751h0V6.288A1.16,1.16,0,0,1,8.449,7.4a.936.936,0,0,1-.868.978ZM7.115,5h0c-.518-.2-.947-.4-.947-.969,0-.588.516-.776.949-.83V5Z" transform="translate(2681.634 -984.533)" fill="#008346"/>
  </g>
</svg>
