<svg xmlns="http://www.w3.org/2000/svg" width="16.2" height="16.2" viewBox="0 0 16.2 16.2">
  <path id="heart_1_" data-name="heart (1)" d="M8,16a.881.881,0,0,1-.619-.261c-.646-.635-1.27-1.232-1.819-1.759l0,0A35.87,35.87,0,0,1,1.587,9.786,7.165,7.165,0,0,1,0,5.4,6.04,6.04,0,0,1,1.269,1.566,4.1,4.1,0,0,1,4.47,0,3.752,3.752,0,0,1,6.984.975,5.548,5.548,0,0,1,8,2.168,5.548,5.548,0,0,1,9.016.975,3.752,3.752,0,0,1,11.53,0a4.1,4.1,0,0,1,3.2,1.566A6.04,6.04,0,0,1,16,5.4a7.164,7.164,0,0,1-1.587,4.381,35.863,35.863,0,0,1-3.972,4.191C9.89,14.5,9.266,15.1,8.618,15.739A.881.881,0,0,1,8,16ZM4.47,1.053A3.215,3.215,0,0,0,1.958,2.28,4.917,4.917,0,0,0,.937,5.4,6.021,6.021,0,0,0,2.308,9.114a35.286,35.286,0,0,0,3.859,4.061l0,0c.552.529,1.177,1.128,1.829,1.768C8.654,14.3,9.28,13.7,9.833,13.175a35.292,35.292,0,0,0,3.858-4.061A6.021,6.021,0,0,0,15.063,5.4,4.917,4.917,0,0,0,14.042,2.28,3.215,3.215,0,0,0,11.53,1.053a2.9,2.9,0,0,0-1.941.755A5,5,0,0,0,8.508,3.215a.56.56,0,0,1-1.016,0A5,5,0,0,0,6.41,1.809,2.9,2.9,0,0,0,4.47,1.053Zm0,0" transform="translate(0.1 0.1)" fill="#292e2f" stroke="#000" stroke-width="0.2"/>
</svg>
