<svg xmlns="http://www.w3.org/2000/svg" width="13" height="16" viewBox="0 0 13 16">
  <g id="_005-place" data-name="005-place" transform="translate(0 0)">
    <g id="Group_68" data-name="Group 68" transform="translate(0)">
      <g id="Group_67" data-name="Group 67">
        <path id="Path_323" data-name="Path 323" d="M60.72,2.782a6.5,6.5,0,0,0-10.667,0A6.438,6.438,0,0,0,49.3,8.735a5.084,5.084,0,0,0,.942,1.548l4.719,5.52a.563.563,0,0,0,.855,0l4.718-5.518a5.089,5.089,0,0,0,.942-1.546A6.439,6.439,0,0,0,60.72,2.782Zm-.3,5.565a3.987,3.987,0,0,1-.741,1.209l0,0-4.292,5.019L51.092,9.555a3.99,3.99,0,0,1-.742-1.212,5.369,5.369,0,1,1,10.072,0Z" transform="translate(-48.886 0)" fill="#292e2f"/>
      </g>
    </g>
    <g id="Group_70" data-name="Group 70" transform="translate(3.191 3.199)">
      <g id="Group_69" data-name="Group 69">
        <path id="Path_324" data-name="Path 324" d="M159.063,106.219a3.309,3.309,0,1,0,3.309,3.309A3.313,3.313,0,0,0,159.063,106.219Zm0,5.437a2.127,2.127,0,1,1,2.127-2.127A2.13,2.13,0,0,1,159.063,111.656Z" transform="translate(-155.754 -106.219)" fill="#292e2f"/>
      </g>
    </g>
  </g>
</svg>
